<svg width="24.530090" height="22.058228" viewBox="0 0 24.5301 22.0582" fill="none" xmlns="http://www.w3.org/2000/svg" xmlns:xlink="http://www.w3.org/1999/xlink">
	<desc>
			Created with Pixso.
	</desc>
	<defs/>
	<path id="Vector" d="M23.5621 15.6379L7.2789 15.6379L8.0965 13.9727L21.6808 13.9481C22.1402 13.9481 22.534 13.6199 22.616 13.166L24.4973 2.63593C24.5465 2.35974 24.4727 2.07538 24.2922 1.85938C24.203 1.75305 24.0917 1.66742 23.9661 1.6084C23.8405 1.54938 23.7036 1.51837 23.5648 1.51758L6.2836 1.46014L6.13593 0.765625C6.04297 0.322632 5.64374 0 5.18985 0L0.96524 0C0.709229 0 0.463715 0.101685 0.282715 0.282715C0.101685 0.463745 0 0.709229 0 0.96521C0 1.22125 0.101685 1.46674 0.282715 1.64777C0.463715 1.8288 0.709229 1.93048 0.96524 1.93048L4.40781 1.93048L5.05313 4.99841L6.64178 12.6902L4.5965 16.0289C4.49026 16.1722 4.4263 16.3425 4.4118 16.5203C4.39731 16.6981 4.43286 16.8765 4.51447 17.0352C4.67853 17.3605 5.00937 17.5656 5.37579 17.5656L7.09296 17.5656C6.7269 18.0519 6.52914 18.6441 6.52969 19.2527C6.52969 20.8004 7.78751 22.0582 9.33514 22.0582C10.8828 22.0582 12.1406 20.8004 12.1406 19.2527C12.1406 18.6429 11.9383 18.0496 11.5773 17.5656L15.9824 17.5656C15.6163 18.0519 15.4186 18.6441 15.4191 19.2527C15.4191 20.8004 16.6769 22.0582 18.2246 22.0582C19.7723 22.0582 21.0301 20.8004 21.0301 19.2527C21.0301 18.6429 20.8277 18.0496 20.4668 17.5656L23.5648 17.5656C24.0953 17.5656 24.5301 17.1336 24.5301 16.6004C24.5285 16.3447 24.4258 16.1 24.2445 15.9196C24.0631 15.7393 23.8178 15.6381 23.5621 15.6379ZM6.68555 3.36328L22.4301 3.41522L20.8879 12.0504L8.52032 12.0723L6.68555 3.36328ZM9.33514 20.1168C8.85938 20.1168 8.4711 19.7285 8.4711 19.2527C8.4711 18.777 8.85938 18.3887 9.33514 18.3887C9.81094 18.3887 10.1992 18.777 10.1992 19.2527C10.1992 19.4819 10.1082 19.7017 9.94614 19.8637C9.78409 20.0258 9.56433 20.1168 9.33514 20.1168ZM18.2246 20.1168C17.7488 20.1168 17.3605 19.7285 17.3605 19.2527C17.3605 18.777 17.7488 18.3887 18.2246 18.3887C18.7004 18.3887 19.0887 18.777 19.0887 19.2527C19.0887 19.4819 18.9976 19.7017 18.8356 19.8637C18.6736 20.0258 18.4538 20.1168 18.2246 20.1168Z" fill="#000000" fill-opacity="1.000000" fill-rule="nonzero"/>
</svg>
