<svg width="125.563354" height="27.035645" viewBox="0 0 125.563 27.0356" fill="none" xmlns="http://www.w3.org/2000/svg" xmlns:xlink="http://www.w3.org/1999/xlink">
	<desc>
			Created with Pixso.
	</desc>
	<defs/>
	<path id="SkinClinic" d="M5.51172 7.37939L5.51172 13.6714L16.5269 13.6714L16.5269 18.0957L5.51172 18.0957L5.51172 26.7617L0 26.7617L0 2.96338L17.9878 2.96338L17.9878 7.37939L5.51172 7.37939ZM39.3042 8.4668L39.3042 26.7617L34.2739 26.7617L34.2739 24.5869Q33.2197 25.7739 31.7588 26.4048Q30.2979 27.0356 28.5962 27.0356Q24.9937 27.0356 22.8853 24.9604Q20.7769 22.8853 20.7769 18.8096L20.7769 8.4668L26.0811 8.4668L26.0811 18.021Q26.0811 22.4453 29.7832 22.4453Q31.6841 22.4453 32.8379 21.2085Q34 19.9634 34 17.5146L34 8.4668L39.3042 8.4668ZM49.2979 10.8823Q50.2525 9.5542 51.8629 8.88184Q53.4815 8.20117 55.5899 8.20117L55.5899 13.0903Q54.7018 13.0239 54.4029 13.0239Q52.1202 13.0239 50.8253 14.3022Q49.5387 15.5723 49.5387 18.1289L49.5387 26.7617L44.2345 26.7617L44.2345 8.4668L49.2979 8.4668L49.2979 10.8823ZM69.8672 8.20117Q73.2705 8.20117 75.3623 10.2432Q77.4541 12.2769 77.4541 16.2861L77.4541 26.7617L72.1499 26.7617L72.1499 17.1079Q72.1499 14.9331 71.1953 13.8623Q70.2408 12.7915 68.4395 12.7915Q66.439 12.7915 65.2437 14.0366Q64.0567 15.2734 64.0567 17.7139L64.0567 26.7617L58.7525 26.7617L58.7525 8.4668L63.8159 8.4668L63.8159 10.6084Q64.8701 9.45459 66.4307 8.83203Q67.9995 8.20117 69.8672 8.20117ZM82.2465 8.4668L87.5507 8.4668L87.5507 26.7617L82.2465 26.7617L82.2465 8.4668ZM84.8944 5.91846Q83.4335 5.91846 82.5121 5.07178Q81.599 4.2168 81.599 2.96338Q81.599 1.70166 82.5121 0.85498Q83.4335 0 84.8944 0Q86.3554 0 87.2767 0.821777Q88.1981 1.63525 88.1981 2.86377Q88.1981 4.18359 87.2767 5.05518Q86.3554 5.91846 84.8944 5.91846ZM97.5439 10.8823Q98.4985 9.5542 100.109 8.88184Q101.728 8.20117 103.836 8.20117L103.836 13.0903Q102.948 13.0239 102.649 13.0239Q100.366 13.0239 99.0713 14.3022Q97.7847 15.5723 97.7847 18.1289L97.7847 26.7617L92.4805 26.7617L92.4805 8.4668L97.5439 8.4668L97.5439 10.8823ZM115.528 27.0356Q112.639 27.0356 110.34 25.832Q108.049 24.6201 106.754 22.4785Q105.467 20.3369 105.467 17.6143Q105.467 14.8916 106.754 12.75Q108.049 10.6084 110.34 9.40479Q112.639 8.20117 115.528 8.20117Q118.425 8.20117 120.699 9.40479Q122.982 10.6084 124.268 12.75Q125.563 14.8916 125.563 17.6143Q125.563 20.3369 124.268 22.4785Q122.982 24.6201 120.699 25.832Q118.425 27.0356 115.528 27.0356ZM115.528 22.6777Q117.57 22.6777 118.881 21.3081Q120.193 19.9302 120.193 17.6143Q120.193 15.3066 118.881 13.9287Q117.57 12.5508 115.528 12.5508Q113.494 12.5508 112.166 13.9287Q110.838 15.3066 110.838 17.6143Q110.838 19.9302 112.166 21.3081Q113.494 22.6777 115.528 22.6777Z" fill="#000000" fill-opacity="1.000000" fill-rule="evenodd"/>
</svg>
