<svg width="23.333313" height="18.666687" viewBox="0 0 23.3333 18.6667" fill="none" xmlns="http://www.w3.org/2000/svg" xmlns:xlink="http://www.w3.org/1999/xlink">
	<desc>
			Created with Pixso.
	</desc>
	<defs/>
	<path id="Vector" d="M21 9.33331L21 3.5L23.3333 3.5L23.3333 10.5L21 10.5L21 9.33331ZM21 15.1667L23.3333 15.1667L23.3333 12.8333L21 12.8333L21 15.1667ZM9.33331 10.5C12.4484 10.5 18.6667 12.0634 18.6667 15.1667L18.6667 18.6667L0 18.6667L0 15.1667C0 12.0634 6.21832 10.5 9.33331 10.5ZM9.33331 0C10.571 0 11.758 0.491638 12.6332 1.36682C13.5084 2.242 14 3.42902 14 4.66669C14 5.90436 13.5084 7.09131 12.6332 7.96649C11.758 8.84167 10.571 9.33331 9.33331 9.33331C8.09564 9.33331 6.90869 8.84167 6.03351 7.96649C5.15833 7.09131 4.66669 5.90436 4.66669 4.66669C4.66669 3.42902 5.15833 2.242 6.03351 1.36682C6.90869 0.491638 8.09564 0 9.33331 0ZM9.33331 12.7167C5.86835 12.7167 2.21667 14.42 2.21667 15.1667L2.21667 16.45L16.45 16.45L16.45 15.1667C16.45 14.42 12.7983 12.7167 9.33331 12.7167ZM9.33331 2.21667C8.68353 2.21667 8.06036 2.47479 7.60095 2.93427C7.14148 3.39374 6.88336 4.01691 6.88336 4.66669C6.88336 5.31647 7.14148 5.93964 7.60095 6.39911C8.06036 6.85852 8.68353 7.11664 9.33331 7.11664C9.98309 7.11664 10.6063 6.85852 11.0657 6.39911C11.5252 5.93964 11.7833 5.31647 11.7833 4.66669C11.7833 4.01691 11.5252 3.39374 11.0657 2.93427C10.6063 2.47479 9.98309 2.21667 9.33331 2.21667Z" fill="#000000" fill-opacity="1.000000" fill-rule="nonzero"/>
</svg>
